<svg width="18" height="18" viewBox="0 0 18 18" fill="none" xmlns="http://www.w3.org/2000/svg">
<g filter="url(#filter0_i_16103_20916)">
<path d="M0.75 2.25C0.75 1.42157 1.42157 0.75 2.25 0.75H5.75C6.57843 0.75 7.25 1.42157 7.25 2.25V5.74998C7.25 6.57841 6.57843 7.24998 5.75 7.24998H2.25C1.42157 7.24998 0.75 6.57841 0.75 5.74998V2.25Z" stroke="#9CA3AF" stroke-width="1.5" stroke-linecap="round" stroke-linejoin="round"/>
<path d="M0.75 11.75C0.75 10.9216 1.42157 10.25 2.25 10.25H5.75C6.57843 10.25 7.25 10.9216 7.25 11.75V15.25C7.25 16.0784 6.57843 16.75 5.75 16.75H2.25C1.42157 16.75 0.75 16.0784 0.75 15.25V11.75Z" stroke="#9CA3AF" stroke-width="1.5" stroke-linecap="round" stroke-linejoin="round"/>
<path d="M10.25 2.25C10.25 1.42157 10.9216 0.75 11.75 0.75H15.25C16.0784 0.75 16.75 1.42157 16.75 2.25V5.74998C16.75 6.57841 16.0784 7.24998 15.25 7.24998H11.75C10.9216 7.24998 10.25 6.57841 10.25 5.74998V2.25Z" stroke="#9CA3AF" stroke-width="1.5" stroke-linecap="round" stroke-linejoin="round"/>
<path d="M10.25 11.75C10.25 10.9216 10.9216 10.25 11.75 10.25H15.25C16.0784 10.25 16.75 10.9216 16.75 11.75V15.25C16.75 16.0784 16.0784 16.75 15.25 16.75H11.75C10.9216 16.75 10.25 16.0784 10.25 15.25V11.75Z" stroke="#9CA3AF" stroke-width="1.5" stroke-linecap="round" stroke-linejoin="round"/>
</g>
<defs>
<filter id="filter0_i_16103_20916" x="0" y="0" width="17.5" height="18" filterUnits="userSpaceOnUse" color-interpolation-filters="sRGB">
<feFlood flood-opacity="0" result="BackgroundImageFix"/>
<feBlend mode="normal" in="SourceGraphic" in2="BackgroundImageFix" result="shape"/>
<feColorMatrix in="SourceAlpha" type="matrix" values="0 0 0 0 0 0 0 0 0 0 0 0 0 0 0 0 0 0 127 0" result="hardAlpha"/>
<feOffset dy="0.5"/>
<feGaussianBlur stdDeviation="0.25"/>
<feComposite in2="hardAlpha" operator="arithmetic" k2="-1" k3="1"/>
<feColorMatrix type="matrix" values="0 0 0 0 0.121569 0 0 0 0 0.160784 0 0 0 0 0.215686 0 0 0 0.2 0"/>
<feBlend mode="normal" in2="shape" result="effect1_innerShadow_16103_20916"/>
</filter>
</defs>
</svg>
